<svg width="24" height="24" viewBox="0 0 24 24" fill="none" xmlns="http://www.w3.org/2000/svg">
<path d="M21 21V18.423C21 16.5358 19.4394 15 17.5217 15H6.47832C4.56062 15 3 16.5358 3 18.423V21" stroke="#8E8E8E" stroke-width="1.5" stroke-linecap="round" stroke-linejoin="round"/>
<path d="M12.0008 11.4C13.1208 11.4 14.1848 10.952 14.9688 10.168C15.7528 9.384 16.2008 8.306 16.2008 7.2C16.2008 6.094 15.7528 5.016 14.9688 4.232C14.1848 3.448 13.1068 3 12.0008 3C10.8948 3 9.81678 3.448 9.03278 4.232C8.24878 5.016 7.80078 6.094 7.80078 7.2C7.80078 8.306 8.24878 9.384 9.03278 10.168C9.81678 10.952 10.8948 11.4 12.0008 11.4Z" stroke="#8E8E8E" stroke-width="1.5" stroke-linecap="round" stroke-linejoin="round"/>
</svg>
