<svg width="24" height="24" viewBox="0 0 24 24" fill="none" xmlns="http://www.w3.org/2000/svg">
<g clip-path="url(#clip0_15_765)">
<path d="M3 7C3 6.46957 3.23705 5.96086 3.65901 5.58579C4.08097 5.21071 4.65326 5 5.25 5H18.75C19.3467 5 19.919 5.21071 20.341 5.58579C20.7629 5.96086 21 6.46957 21 7V19C21 19.5304 20.7629 20.0391 20.341 20.4142C19.919 20.7893 19.3467 21 18.75 21H5.25C4.65326 21 4.08097 20.7893 3.65901 20.4142C3.23705 20.0391 3 19.5304 3 19V7Z" stroke="#8E8E8E" stroke-width="1.5" stroke-linecap="round" stroke-linejoin="round"/>
<path d="M16 3V7" stroke="#8E8E8E" stroke-width="1.5" stroke-linecap="round" stroke-linejoin="round"/>
<path d="M8 3V7" stroke="#8E8E8E" stroke-width="1.5" stroke-linecap="round" stroke-linejoin="round"/>
<path d="M4 11H20" stroke="#8E8E8E" stroke-width="1.5" stroke-linecap="round" stroke-linejoin="round"/>
</g>
<defs>
<clipPath id="clip0_15_765">
<rect width="24" height="24" fill="white"/>
</clipPath>
</defs>
</svg>
