<svg width="24" height="24" viewBox="0 0 24 24" fill="none" xmlns="http://www.w3.org/2000/svg">
<path d="M21 21C21 19.9936 21 18.423 21 18.423C21 16.5358 19.4394 15 17.5217 15H6.47833C4.56062 15 3 16.5358 3 18.423C3 18.423 3 19.9936 3 21" fill="#1D1D1D"/>
<path d="M21 21C21 19.9936 21 18.423 21 18.423C21 16.5358 19.4394 15 17.5217 15H6.47833C4.56062 15 3 16.5358 3 18.423C3 18.423 3 19.9936 3 21H21Z" stroke="#1D1D1D" stroke-width="1.5" stroke-linecap="round" stroke-linejoin="round"/>
<path d="M12 11C13.0667 11 14.08 10.5733 14.8267 9.82667C15.5733 9.08 16 8.05333 16 7C16 5.94667 15.5733 4.92 14.8267 4.17333C14.08 3.42667 13.0533 3 12 3C10.9467 3 9.92 3.42667 9.17333 4.17333C8.42667 4.92 8 5.94667 8 7C8 8.05333 8.42667 9.08 9.17333 9.82667C9.92 10.5733 10.9467 11 12 11Z" fill="#1D1D1D" stroke="#1D1D1D" stroke-width="1.5" stroke-linecap="round" stroke-linejoin="round"/>
</svg>
