<svg width="26" height="26" viewBox="0 0 26 26" fill="none" xmlns="http://www.w3.org/2000/svg">
<rect width="26" height="26" rx="13" fill="#EB003B"/>
<path d="M18.1556 8.94023C17.8577 8.64215 17.5039 8.40569 17.1146 8.24436C16.7252 8.08304 16.3079 8 15.8864 8C15.465 8 15.0477 8.08304 14.6583 8.24436C14.269 8.40569 13.9152 8.64215 13.6173 8.94023L12.9989 9.55857L12.3806 8.94023C11.7788 8.33841 10.9625 8.00031 10.1114 8.00031C9.26033 8.00031 8.44408 8.33841 7.84226 8.94023C7.24044 9.54205 6.90234 10.3583 6.90234 11.2094C6.90234 12.0605 7.24044 12.8767 7.84226 13.4786L8.4606 14.0969L12.9989 18.6352L17.5373 14.0969L18.1556 13.4786C18.4537 13.1806 18.6901 12.8269 18.8515 12.4375C19.0128 12.0482 19.0958 11.6308 19.0958 11.2094C19.0958 10.7879 19.0128 10.3706 18.8515 9.98127C18.6901 9.59192 18.4537 9.23817 18.1556 8.94023Z" fill="white" stroke="white" stroke-width="1.5" stroke-linecap="round" stroke-linejoin="round"/>
</svg>
