<svg width="48" height="48" viewBox="0 0 48 48" fill="none" xmlns="http://www.w3.org/2000/svg">
<path d="M24 48C37.2548 48 48 37.2548 48 24C48 10.7452 37.2548 0 24 0C10.7452 0 0 10.7452 0 24C0 37.2548 10.7452 48 24 48Z" fill="#FEE500"/>
<path d="M23.9992 13.7998C18.0352 13.7998 13.1992 17.701 13.1992 22.5142C13.272 24.0942 13.7843 25.6226 14.6785 26.9273C15.5728 28.232 16.8134 29.2612 18.2608 29.899C18.0964 30.4822 17.1988 33.655 17.1616 33.9046C17.1616 33.9046 17.14 34.0918 17.26 34.165C17.2997 34.1852 17.3431 34.1969 17.3875 34.1994C17.4319 34.2018 17.4764 34.195 17.518 34.1794C17.8564 34.1314 21.4576 31.5394 22.078 31.093C22.7138 31.186 23.3555 31.2325 23.998 31.2322C29.962 31.2322 34.798 27.3286 34.798 22.5154C34.798 17.7022 29.9632 13.7998 23.9992 13.7998Z" fill="#191600"/>
</svg>
