<svg width="20" height="20" viewBox="0 0 20 20" fill="none" xmlns="http://www.w3.org/2000/svg">
<g clip-path="url(#clip0_301_1253)">
<path d="M2.5 4.375C2.5 3.87772 2.67559 3.40081 2.98816 3.04917C3.30072 2.69754 3.72464 2.5 4.16667 2.5H15.8333C16.2754 2.5 16.6993 2.69754 17.0118 3.04917C17.3244 3.40081 17.5 3.87772 17.5 4.375V15.625C17.5 16.1223 17.3244 16.5992 17.0118 16.9508C16.6993 17.3025 16.2754 17.5 15.8333 17.5H4.16667C3.72464 17.5 3.30072 17.3025 2.98816 16.9508C2.67559 16.5992 2.5 16.1223 2.5 15.625V4.375Z" stroke="#1D1D1D" stroke-width="1.5" stroke-linecap="round" stroke-linejoin="round"/>
<path d="M5.83203 6.66797H14.1654" stroke="#1D1D1D" stroke-width="1.5" stroke-linecap="round" stroke-linejoin="round"/>
<path d="M5.83203 10H14.1654" stroke="#1D1D1D" stroke-width="1.5" stroke-linecap="round" stroke-linejoin="round"/>
<path d="M5.83203 13.332H14.1654" stroke="#1D1D1D" stroke-width="1.5" stroke-linecap="round" stroke-linejoin="round"/>
</g>
<defs>
<clipPath id="clip0_301_1253">
<rect width="20" height="20" fill="white"/>
</clipPath>
</defs>
</svg>
