<svg width="22" height="20" viewBox="0 0 22 20" fill="none" xmlns="http://www.w3.org/2000/svg">
<g clip-path="url(#clip0_441_5229)">
<path d="M7.94194 6.61143C8.10484 6.58781 8.24569 6.48552 8.31855 6.33791L10.696 1.52124L10.6962 1.52095C10.7237 1.46513 10.7663 1.41812 10.8191 1.38525C10.872 1.35238 10.933 1.33496 10.9952 1.33496C11.0574 1.33496 11.1184 1.35238 11.1713 1.38525C11.2241 1.41812 11.2667 1.46513 11.2942 1.52095L11.2943 1.52118L13.671 6.33785C13.7438 6.48547 13.8846 6.58777 14.0475 6.61142L19.3642 7.38309L19.3644 7.38311C19.4227 7.39155 19.4777 7.41531 19.5239 7.45194C19.57 7.48859 19.6056 7.5368 19.6271 7.59168C19.6485 7.64656 19.655 7.70615 19.6459 7.76437C19.6375 7.81872 19.6157 7.87007 19.5826 7.91387L19.5397 7.96063L15.6965 11.7008C15.5784 11.8157 15.5245 11.9813 15.5524 12.1437L16.4616 17.4395L16.4616 17.4397C16.4716 17.498 16.466 17.5579 16.4452 17.6133C16.4245 17.6686 16.3893 17.7175 16.3435 17.7548C16.2976 17.7921 16.2426 17.8166 16.1842 17.8256C16.1293 17.8342 16.0733 17.8288 16.0211 17.8102L15.9655 17.7846L11.2333 15.2909C11.0875 15.2141 10.9133 15.214 10.7675 15.2907L6.01251 17.7907L6.01232 17.7908C5.96004 17.8183 5.90139 17.8315 5.84237 17.8288C5.78335 17.8262 5.72608 17.808 5.67643 17.776C5.62678 17.744 5.58653 17.6993 5.5598 17.6466C5.53479 17.5973 5.52246 17.5426 5.52384 17.4875L5.53104 17.4266L6.43716 12.1436C6.465 11.9813 6.41113 11.8157 6.29311 11.7008L2.44145 7.95165L2.44098 7.9512C2.39866 7.9101 2.36799 7.85851 2.35213 7.80169L1.87299 7.93548L2.35213 7.80169C2.33626 7.74487 2.33576 7.68485 2.35067 7.62777C2.36558 7.57069 2.39538 7.5186 2.43701 7.4768C2.47597 7.43769 2.52398 7.40891 2.57671 7.39297L2.63932 7.38022L7.94194 6.61143Z" fill="#475ED9" stroke="#475ED9" stroke-linecap="round" stroke-linejoin="round"/>
</g>
<defs>
<clipPath id="clip0_441_5229">
<rect width="20" height="20" fill="white" transform="translate(1)"/>
</clipPath>
</defs>
</svg>
