<svg width="38" height="30" viewBox="0 0 38 30" fill="none" xmlns="http://www.w3.org/2000/svg">
<g clip-path="url(#clip0_526_7520)">
<path d="M14.377 9.66924C14.5399 9.64562 14.6808 9.54333 14.7536 9.39572L18.3199 2.17072L18.32 2.17043C18.3819 2.04483 18.4777 1.93907 18.5966 1.86511C18.7155 1.79115 18.8528 1.75195 18.9928 1.75195C19.1328 1.75195 19.27 1.79115 19.3889 1.86511C19.5078 1.93907 19.6036 2.04483 19.6655 2.17043L19.6657 2.17066L23.2307 9.39566C23.3035 9.54328 23.4443 9.64559 23.6072 9.66923L31.5822 10.8267L31.5824 10.8268C31.7136 10.8458 31.8374 10.8992 31.9412 10.9816C32.0451 11.0641 32.1252 11.1726 32.1734 11.2961C32.2217 11.4195 32.2363 11.5536 32.2159 11.6846C32.1962 11.8112 32.1443 11.9306 32.0654 12.0314L31.989 12.1147L26.2191 17.7298C26.101 17.8447 26.0471 18.0104 26.075 18.1728L27.4387 26.1165L27.4388 26.1167C27.4613 26.2478 27.4486 26.3826 27.4019 26.5072C27.3552 26.6318 27.2762 26.7417 27.173 26.8257C27.0698 26.9096 26.9461 26.9646 26.8146 26.985C26.6871 27.0048 26.5568 26.9913 26.4362 26.9461L26.3377 26.9008L19.2334 23.1571C19.0876 23.0803 18.9134 23.0802 18.7676 23.1569L11.6351 26.9069L11.6349 26.907C11.5173 26.9689 11.3853 26.9984 11.2525 26.9925C11.1197 26.9867 10.9909 26.9456 10.8792 26.8736C10.7675 26.8016 10.6769 26.7011 10.6168 26.5826C10.5585 26.4678 10.5309 26.3401 10.5363 26.2117L10.5491 26.1036L11.9093 18.1727C11.9372 18.0104 11.8833 17.8447 11.7653 17.7299L5.98779 12.1061L5.98733 12.1057C5.89209 12.0132 5.8231 11.8971 5.7874 11.7693C5.7517 11.6414 5.75057 11.5064 5.78413 11.378C5.81768 11.2495 5.88472 11.1323 5.9784 11.0383C6.06906 10.9473 6.18153 10.8811 6.30497 10.8461L6.41609 10.8235L14.377 9.66924Z" fill="white" stroke="#475ED9" stroke-linecap="round" stroke-linejoin="round"/>
</g>
<defs>
<clipPath id="clip0_526_7520">
<rect width="30" height="30" fill="white" transform="translate(4)"/>
</clipPath>
</defs>
</svg>
