<svg width="48" height="48" viewBox="0 0 48 48" fill="none" xmlns="http://www.w3.org/2000/svg">
<path d="M42.6072 7.53629C41.5321 6.41518 40.2556 5.52584 38.8506 4.91907C37.4456 4.3123 35.9397 4 34.4189 4C32.8981 4 31.3922 4.3123 29.9873 4.91907C28.5823 5.52584 27.3058 6.41518 26.2307 7.53629L23.9994 9.86189L21.7682 7.53629C19.5965 5.27279 16.6511 4.00117 13.5799 4.00117C10.5087 4.00117 7.56334 5.27279 5.39169 7.53629C3.22003 9.79979 2 12.8697 2 16.0708C2 19.2719 3.22003 22.3418 5.39169 24.6053L7.62293 26.9309L23.9994 44L40.3759 26.9309L42.6072 24.6053C43.6828 23.4848 44.5361 22.1543 45.1182 20.6899C45.7004 19.2255 46 17.6559 46 16.0708C46 14.4857 45.7004 12.9161 45.1182 11.4517C44.5361 9.98736 43.6828 8.65687 42.6072 7.53629Z" stroke="#C6C6C6" stroke-width="1.5" stroke-linecap="round" stroke-linejoin="round"/>
</svg>
