<svg width="20" height="20" viewBox="0 0 20 20" fill="none" xmlns="http://www.w3.org/2000/svg">
<g clip-path="url(#clip0_552_13238)">
<path d="M7.5 12.5L12.5 7.5" stroke="#717171" stroke-width="1.5" stroke-linecap="round" stroke-linejoin="round"/>
<path d="M9.16797 4.99895L9.5538 4.55229C10.3353 3.77089 11.3952 3.33195 12.5003 3.33203C13.6055 3.33211 14.6653 3.7712 15.4467 4.5527C16.2281 5.33421 16.6671 6.39411 16.667 7.49925C16.6669 8.60438 16.2278 9.66423 15.4463 10.4456L15.0013 10.8323" stroke="#717171" stroke-width="1.5" stroke-linecap="round" stroke-linejoin="round"/>
<path d="M10.8321 15.0013L10.5013 15.4463C9.71069 16.2281 8.64364 16.6666 7.53173 16.6666C6.41983 16.6666 5.35278 16.2281 4.56215 15.4463C4.17245 15.061 3.86306 14.6022 3.65191 14.0964C3.44076 13.5907 3.33203 13.0481 3.33203 12.5001C3.33203 11.952 3.44076 11.4094 3.65191 10.9037C3.86306 10.398 4.17245 9.93914 4.56215 9.5538L4.99882 9.16797" stroke="#717171" stroke-width="1.5" stroke-linecap="round" stroke-linejoin="round"/>
</g>
<defs>
<clipPath id="clip0_552_13238">
<rect width="20" height="20" fill="white"/>
</clipPath>
</defs>
</svg>
