<svg width="8" height="8" viewBox="0 0 8 8" fill="none" xmlns="http://www.w3.org/2000/svg">
<path fill-rule="evenodd" clip-rule="evenodd" d="M0.221623 1.28228C-0.0712701 0.98939 -0.0712701 0.514516 0.221623 0.221623C0.514516 -0.0712702 0.98939 -0.0712702 1.28228 0.221623L4.00044 2.93978L6.7186 0.221623C7.01149 -0.0712702 7.48637 -0.0712702 7.77926 0.221623C8.07215 0.514516 8.07215 0.98939 7.77926 1.28228L5.0611 4.00044L7.77871 6.71805C8.07161 7.01095 8.07161 7.48582 7.77871 7.77871C7.48582 8.07161 7.01095 8.07161 6.71805 7.77871L4.00044 5.0611L1.28283 7.77871C0.989936 8.07161 0.515062 8.07161 0.222169 7.77871C-0.0707245 7.48582 -0.0707245 7.01095 0.222169 6.71805L2.93978 4.00044L0.221623 1.28228Z" fill="white"/>
</svg>
