<svg width="186" height="22" viewBox="0 0 186 22" fill="none" xmlns="http://www.w3.org/2000/svg">
<path fill-rule="evenodd" clip-rule="evenodd" d="M10.5578 2L0 20.4166H21.1155L10.5578 2ZM51.3818 14.4326C54.8002 14.4326 57.5657 11.6821 57.5657 8.29566C57.5657 4.90918 54.7942 2.15876 51.3818 2.15876H41.5006V20.5754H57.5657C57.5657 17.183 54.7942 14.4385 51.3818 14.4385V14.4326ZM38.6825 10.7634H29.4244V11.9648H38.7003V20.5695H29.4244C24.3028 20.5695 20.1486 16.4468 20.1486 11.3641C20.1486 6.28144 24.5046 2.15876 29.4244 2.15876C34.3443 2.15876 38.368 5.95752 38.6825 10.7634Z" fill="white"/>
<path d="M73.5499 15.3037H69.3579L68.6859 17.2877H65.8219L69.8859 6.05572H73.0539L77.1179 17.2877H74.2219L73.5499 15.3037ZM72.8459 13.1917L71.4539 9.07972L70.0779 13.1917H72.8459ZM83.9228 17.2877L81.5868 13.0477H80.9308V17.2877H78.1948V6.05572H82.7868C83.6721 6.05572 84.4241 6.21039 85.0428 6.51972C85.6721 6.82905 86.1415 7.25572 86.4508 7.79972C86.7601 8.33305 86.9148 8.93039 86.9148 9.59172C86.9148 10.3384 86.7015 11.0051 86.2748 11.5917C85.8588 12.1784 85.2401 12.5944 84.4188 12.8397L87.0108 17.2877H83.9228ZM80.9308 11.1117H82.6268C83.1281 11.1117 83.5015 10.9891 83.7468 10.7437C84.0028 10.4984 84.1308 10.1517 84.1308 9.70372C84.1308 9.27705 84.0028 8.94105 83.7468 8.69572C83.5015 8.45039 83.1281 8.32772 82.6268 8.32772H80.9308V11.1117ZM96.5523 6.05572V8.24772H93.5763V17.2877H90.8403V8.24772H87.8643V6.05572H96.5523ZM108.452 9.60772C108.249 9.23439 107.956 8.95172 107.572 8.75972C107.199 8.55705 106.756 8.45572 106.244 8.45572C105.359 8.45572 104.649 8.74905 104.116 9.33572C103.583 9.91172 103.316 10.6851 103.316 11.6557C103.316 12.6904 103.593 13.5011 104.148 14.0877C104.713 14.6637 105.487 14.9517 106.468 14.9517C107.14 14.9517 107.705 14.7811 108.164 14.4397C108.633 14.0984 108.975 13.6077 109.188 12.9677H105.716V10.9517H111.668V13.4957C111.465 14.1784 111.119 14.8131 110.628 15.3997C110.148 15.9864 109.535 16.4611 108.788 16.8237C108.041 17.1864 107.199 17.3677 106.26 17.3677C105.151 17.3677 104.159 17.1277 103.284 16.6477C102.42 16.1571 101.743 15.4797 101.252 14.6157C100.772 13.7517 100.532 12.7651 100.532 11.6557C100.532 10.5464 100.772 9.55972 101.252 8.69572C101.743 7.82105 102.42 7.14372 103.284 6.66372C104.148 6.17305 105.135 5.92772 106.244 5.92772C107.588 5.92772 108.719 6.25305 109.636 6.90372C110.564 7.55439 111.177 8.45572 111.476 9.60772H108.452ZM115.712 6.05572V12.7757C115.712 13.4477 115.877 13.9651 116.208 14.3277C116.538 14.6904 117.024 14.8717 117.664 14.8717C118.304 14.8717 118.794 14.6904 119.136 14.3277C119.477 13.9651 119.648 13.4477 119.648 12.7757V6.05572H122.384V12.7597C122.384 13.7624 122.17 14.6104 121.744 15.3037C121.317 15.9971 120.741 16.5197 120.016 16.8717C119.301 17.2237 118.501 17.3997 117.616 17.3997C116.73 17.3997 115.936 17.2291 115.232 16.8877C114.538 16.5357 113.989 16.0131 113.584 15.3197C113.178 14.6157 112.976 13.7624 112.976 12.7597V6.05572H115.712ZM126.881 6.05572V17.2877H124.145V6.05572H126.881ZM132.912 6.05572C134.096 6.05572 135.13 6.29039 136.016 6.75972C136.901 7.22905 137.584 7.89039 138.064 8.74372C138.554 9.58639 138.8 10.5624 138.8 11.6717C138.8 12.7704 138.554 13.7464 138.064 14.5997C137.584 15.4531 136.896 16.1144 136 16.5837C135.114 17.0531 134.085 17.2877 132.912 17.2877H128.704V6.05572H132.912ZM132.736 14.9197C133.77 14.9197 134.576 14.6371 135.152 14.0717C135.728 13.5064 136.016 12.7064 136.016 11.6717C136.016 10.6371 135.728 9.83172 135.152 9.25572C134.576 8.67972 133.77 8.39172 132.736 8.39172H131.44V14.9197H132.736ZM142.905 8.24772V10.5197H146.569V12.6317H142.905V15.0957H147.049V17.2877H140.169V6.05572H147.049V8.24772H142.905ZM157.623 17.2877L155.287 13.0477H154.631V17.2877H151.895V6.05572H156.487C157.373 6.05572 158.125 6.21039 158.743 6.51972C159.373 6.82905 159.842 7.25572 160.151 7.79972C160.461 8.33305 160.615 8.93039 160.615 9.59172C160.615 10.3384 160.402 11.0051 159.975 11.5917C159.559 12.1784 158.941 12.5944 158.119 12.8397L160.711 17.2877H157.623ZM154.631 11.1117H156.327C156.829 11.1117 157.202 10.9891 157.447 10.7437C157.703 10.4984 157.831 10.1517 157.831 9.70372C157.831 9.27705 157.703 8.94105 157.447 8.69572C157.202 8.45039 156.829 8.32772 156.327 8.32772H154.631V11.1117ZM164.861 6.05572V12.7757C164.861 13.4477 165.026 13.9651 165.357 14.3277C165.688 14.6904 166.173 14.8717 166.813 14.8717C167.453 14.8717 167.944 14.6904 168.285 14.3277C168.626 13.9651 168.797 13.4477 168.797 12.7757V6.05572H171.533V12.7597C171.533 13.7624 171.32 14.6104 170.893 15.3037C170.466 15.9971 169.89 16.5197 169.165 16.8717C168.45 17.2237 167.65 17.3997 166.765 17.3997C165.88 17.3997 165.085 17.2291 164.381 16.8877C163.688 16.5357 163.138 16.0131 162.733 15.3197C162.328 14.6157 162.125 13.7624 162.125 12.7597V6.05572H164.861ZM183.342 17.2877H180.606L176.03 10.3597V17.2877H173.294V6.05572H176.03L180.606 13.0157V6.05572H183.342V17.2877Z" fill="white"/>
</svg>
